<svg id="Layer_1" data-name="Layer 1" xmlns="http://www.w3.org/2000/svg" viewBox="0 0 64 64" width="64px" height="64px"><path d="M54.53734,30.73981C41.05959,36.43013,24.75087,42.12045,16.082,47.81077c-3.786-4.97041-4.35585-9.94083-6.61936-14.91125,13.47775-5.69031,29.78647-11.38063,38.45532-17.071C51.70394,20.799,52.27383,25.76939,54.53734,30.73981Z" fill="#32ad6c"/><path d="M26.1084,30.55762a.32339.32339,0,0,1,.39941.06347l4.85352,5.26368-3.78418,1.67968-.31738-1.873,1.00585-.44629-1.76757-2.082-.03614.01562.70411,4.56836-1.8379.81543-.79394-7.06543a.30036.30036,0,0,1,.20312-.33105Z" fill="#fff"/><path d="M31.501,28.16406a4.29036,4.29036,0,0,1,1.36621-.38379,2.27255,2.27255,0,0,1,2,.8086,4.32519,4.32519,0,0,1,.68164,1.10351l.373.84082a4.31531,4.31531,0,0,1,.36132,1.2461,2.26582,2.26582,0,0,1-.74218,2.02441,4.26288,4.26288,0,0,1-1.2002.75781L32.54,35.36133a.54856.54856,0,0,1-.81836-.31543l-2.33691-5.26465a.548.548,0,0,1,.31543-.81836Zm1.38379,4.84473c.04687.10351.11523.13476.207.09473l.47461-.21192a1.29426,1.29426,0,0,0,.74121-.63476,1.39974,1.39974,0,0,0-.14942-1.03907l-.30468-.68554a1.40086,1.40086,0,0,0-.66993-.80762,1.30824,1.30824,0,0,0-.96777.12305l-.47559.21191c-.09179.04-.11425.11231-.06835.21582Z" fill="#fff"/><path d="M38.209,25.18555a.32479.32479,0,0,1,.4004.06347l4.85253,5.26368-3.78418,1.67968-.3164-1.87207,1.00488-.44629-1.7666-2.083-.03711.0166.7041,4.56738-1.83691.81543L36.63477,26.125a.302.302,0,0,1,.20312-.33105Z" fill="#fff"/><path d="M45.082,22.13477l.74219,1.67187-4.89844,2.17481-.74316-1.67188ZM44.36914,24.792l1.97266,4.44239-1.72852.7666L42.6416,25.55957Z" fill="#fff"/><path d="M19.0835,32.58105l.40625.91407,1.61816-.71778.74219,1.67286-2.67871,1.18847a.32681.32681,0,0,0-.17383.49317l.084.19238a.30628.30628,0,0,0,.44825.19531l1.38964-.61719a1.72786,1.72786,0,0,1,1.374-.14453,1.71874,1.71874,0,0,1,.85449.9502l.292.6582a1.65649,1.65649,0,0,1-.97363,2.46582l-.13672.06152.40625.91407-1.0791.47851-.40528-.91406-1.82812.81152L18.67725,39.502l2.81445-1.25a.32743.32743,0,0,0,.1748-.49316l-.085-.19238a.44023.44023,0,0,0-.17383-.21778.31243.31243,0,0,0-.27441.02344l-1.48047.65723a2.09311,2.09311,0,0,1-.71777.19336,1.34849,1.34849,0,0,1-.58789-.08985,1.24666,1.24666,0,0,1-.4541-.32324,1.90885,1.90885,0,0,1-.32422-.50684l-.34082-.76855a1.65755,1.65755,0,0,1,.97265-2.4668l.21-.09277-.40527-.91406Z" fill="#fff"/><path d="M8.50435,26.05092s7.94256-23.613,34.77553-14.16781" fill="none" stroke="#2fac66" stroke-miterlimit="10" stroke-width="0.75"/><polygon points="44.496 13.161 42.064 8.949 39.633 13.161 44.496 13.161" fill="#2fac66"/><path d="M55.49565,37.94908s-7.94256,23.613-34.77553,14.16781" fill="none" stroke="#2fac66" stroke-miterlimit="10" stroke-width="0.75"/><polygon points="19.504 50.839 21.936 55.051 24.367 50.839 19.504 50.839" fill="#2fac66"/></svg>