<svg xmlns="http://www.w3.org/2000/svg" xmlns:xlink="http://www.w3.org/1999/xlink" viewBox="0,0,256,256" width="64px" height="64px" fill-rule="nonzero"><g fill="#1bb46c" fill-rule="nonzero" stroke="none" stroke-width="1" stroke-linecap="butt" stroke-linejoin="miter" stroke-miterlimit="10" stroke-dasharray="" stroke-dashoffset="0" font-family="none" font-weight="none" font-size="none" text-anchor="none" style="mix-blend-mode: normal"><g transform="scale(2,2)"><path d="M36,37v22h-8c-5,0 -9,4 -9,9c0,4.3 3,7.9 7,8.8v7.2c0,21 17,38 38,38c21,0 38,-17 38,-38v-7.2c4,-0.9 7,-4.5 7,-8.8c0,-5 -4,-9 -9,-9h-8v-22c0,-15.4 -12.6,-28 -28,-28c-15.4,0 -28,12.6 -28,28zM67,98c0,1.7 -1.3,3 -3,3c-1.7,0 -3,-1.3 -3,-3v-6c0,-1.7 1.3,-3 3,-3c1.7,0 3,1.3 3,3zM93,71c1.7,0 3,1.3 3,3c0,1.7 -1.3,3 -3,3h-58c-1.7,0 -3,-1.3 -3,-3c0,-1.7 1.3,-3 3,-3zM64,15c12.1,0 22,9.9 22,22v22h-44v-22c0,-12.1 9.9,-22 22,-22z"></path></g></g></svg>