<svg id="Layer_1" data-name="Layer 1" xmlns="http://www.w3.org/2000/svg" viewBox="0 0 64 64" width="64px" height="64px"><circle cx="31.414" cy="27.22887" r="19.94098" fill="#32ad6c" opacity="0.7"/><circle cx="31.414" cy="27.22887" r="19.94098" fill="none" stroke="#32ad6d" stroke-miterlimit="10" stroke-width="3"/><circle cx="31.414" cy="27.22887" r="4.53543" fill="none" stroke="#2fac66" stroke-miterlimit="10"/><polyline points="24.11 54.04 31.414 28.916 39.815 54.04" fill="none" stroke="#2fac66" stroke-miterlimit="10" stroke-width="2"/><circle cx="31.414" cy="27.22887" r="0.76556" fill="none" stroke="#2fac66" stroke-miterlimit="10" stroke-width="2"/><rect x="22.08532" y="53.3367" width="19.48691" height="3.37541" rx="1.6877" fill="none" stroke="#2fac66" stroke-miterlimit="10" stroke-width="2"/><line x1="14.74406" y1="15.78696" x2="26.65086" y2="24.12573" fill="none" stroke="#2fac66" stroke-miterlimit="10"/><line x1="35.84261" y1="30.56306" x2="47.74942" y2="38.90183" fill="none" stroke="#2fac66" stroke-miterlimit="10"/><line x1="16.29564" y1="40.59145" x2="27.24062" y2="31.02513" fill="none" stroke="#2fac66" stroke-miterlimit="10"/><line x1="35.58532" y1="23.73156" x2="46.5303" y2="14.16524" fill="none" stroke="#2fac66" stroke-miterlimit="10"/><circle cx="18.24128" cy="34.73244" r="2.45618" fill="#32ad6c"/><circle cx="23.15364" cy="30.4506" r="2.45618" fill="#32ad6c"/><circle cx="34.8062" cy="19.95634" r="2.45618" fill="#32ad6c"/><circle cx="29.89385" cy="19.95634" r="2.45618" fill="#32ad6c"/><circle cx="24.63877" cy="18.9484" r="2.45618" fill="#32ad6c"/><circle cx="45.77333" cy="33.87937" r="2.45618" fill="#32ad6c"/><circle cx="39.11605" cy="41.28132" r="2.45618" fill="#32ad6c"/><circle cx="37.91572" cy="36.33555" r="2.45618" fill="#32ad6c"/><rect x="43.31715" y="10.31108" width="9.71047" height="4.83784" rx="1.90484" transform="translate(23.11084 -30.33449) rotate(45)" fill="none" stroke="#1bb46c" stroke-miterlimit="10"/></svg>