<svg id="Layer_1" data-name="Layer 1" xmlns="http://www.w3.org/2000/svg" xmlns:xlink="http://www.w3.org/1999/xlink" viewBox="0 0 64 64" width="64px" height="64px"><defs><clipPath id="clip-path"><polygon points="39.878 0.679 39.878 17.494 23.794 26.779 23.794 9.965 39.878 0.679" fill="none"/></clipPath></defs><polygon points="24.702 26.034 -13.298 53.03 32.194 61.971 24.702 26.034" fill="#3e3946" opacity="0.2"/><polygon points="32.195 13.006 54.235 25.732 54.235 49.261 32.194 61.971 10.15 49.261 10.15 25.732 32.195 13.006" fill="#32ad6c"/><g opacity="0.7"><polygon points="54.217 25.72 32.192 38.434 10.17 25.72 32.192 13.006 54.217 25.72" fill="#32ad6c"/><polygon points="10.17 25.72 32.192 38.434 32.194 61.971 10.15 49.261 10.17 25.72" fill="#23794b"/></g><polygon points="10.17 25.72 32.192 38.434 32.192 42.512 10.17 34.438 10.17 25.72" fill="#414142" opacity="0.2"/><polygon points="54.235 28.369 54.235 32.433 32.192 42.512 54.235 28.369" fill="#414142" opacity="0.2"/><polygon points="32.195 7.353 57.44 21.93 57.44 27.99 32.195 42.566 6.945 27.99 6.945 21.93 32.195 7.353" fill="#32ad6c"/><g opacity="0.7"><polygon points="57.42 21.915 32.192 36.478 6.967 21.915 32.192 7.353 57.42 21.915" fill="#2a8d58"/><polygon points="39.843 18.302 38.096 17.293 23.828 25.53 25.575 26.539 39.843 18.302" fill="#b88a4f"/><polygon points="6.945 21.93 32.192 36.478 32.192 42.566 6.945 27.99 6.945 21.93" fill="#1e6c43"/></g><path d="M49.65,42.79341c0,2.92167-2.36843,6.54057-5.28954,8.08478-2.92153,1.54421-5.28995.4276-5.28995-2.49407,0-2.9211,2.36842-6.54056,5.28995-8.08474C47.28153,38.75517,49.65,39.87177,49.65,42.79341Z" fill="#fff"/><polygon points="44.545 43.29 42.696 47.723 41.601 46.69 40.019 48.176 42.701 50.337 48.118 40.508 44.545 43.29" fill="#32ad6c"/><polygon points="31.458 14.91 17.739 22.573 25.895 25.566 31.458 14.91" fill="#3e3946" opacity="0.2"/><g clip-path="url(#clip-path)"><polygon points="37.855 21.12 25.817 28.101 25.817 12.303 37.855 5.322 37.855 21.12" fill="#fff"/><polygon points="28.571 14.216 26.855 15.212 26.855 13.495 28.571 12.5 28.571 14.216" fill="#32ad6c"/><polygon points="37.051 8.658 29.109 13.263 29.109 12.737 37.051 8.131 37.051 8.658" fill="#d1d2d4"/><polygon points="28.571 16.665 26.855 17.66 26.855 15.944 28.571 14.949 28.571 16.665" fill="#32ad6c"/><polygon points="37.051 11.106 29.109 15.712 29.109 15.186 37.051 10.58 37.051 11.106" fill="#d1d2d4"/><polygon points="28.571 19.114 26.855 20.11 26.855 18.393 28.571 17.397 28.571 19.114" fill="#e12126"/><polygon points="37.051 13.555 29.109 18.161 29.109 17.635 37.051 13.029 37.051 13.555" fill="#d1d2d4"/><polygon points="28.571 21.563 26.855 22.558 26.855 20.842 28.571 19.846 28.571 21.563" fill="#e12126"/><polygon points="37.051 16.004 29.109 20.61 29.109 20.084 37.051 15.478 37.051 16.004" fill="#d1d2d4"/><polygon points="28.571 24.012 26.855 25.008 26.855 23.291 28.571 22.295 28.571 24.012" fill="#e12126"/><polygon points="37.051 18.453 29.109 23.059 29.109 22.532 37.051 17.927 37.051 18.453" fill="#d1d2d4"/></g></svg>